<svg width="20" height="20" viewBox="0 0 20 20" fill="none" xmlns="http://www.w3.org/2000/svg">
<path d="M10.7598 5.41758V12.0776C10.7598 12.4976 10.4198 12.8376 9.99985 12.8376C9.57984 12.8376 9.25984 12.4976 9.25984 12.0776V5.41758L6.73984 7.63758C6.43984 7.91758 5.95984 7.89758 5.69984 7.57758C5.41984 7.27758 5.43984 6.79758 5.75984 6.51758L9.49984 3.19758C9.77984 2.93757 10.1998 2.93757 10.4998 3.17758C10.4998 3.19758 10.4998 3.19758 10.4998 3.19758L14.2398 6.51758C14.5598 6.79758 14.5798 7.27758 14.3198 7.57758C14.0398 7.89758 13.5598 7.91758 13.2598 7.63758L10.7598 5.41758ZM15.1598 14.0776C15.1598 13.6576 15.4998 13.3376 15.9198 13.3376C16.3398 13.3376 16.6598 13.6576 16.6598 14.0776V15.9176C16.6598 16.3176 16.3398 16.6576 15.9198 16.6576H4.07984C3.67984 16.6576 3.33984 16.3176 3.33984 15.9176V14.0776C3.33984 13.6576 3.67984 13.3376 4.07984 13.3376C4.49984 13.3376 4.83984 13.6576 4.83984 14.0776V15.1576H15.1598V14.0776Z" fill="#38AEE0"/>
</svg>
