<svg width="24" height="24" viewBox="0 0 24 24" fill="none" xmlns="http://www.w3.org/2000/svg">
<mask id="mask0_3312_54144" style="mask-type:luminance" maskUnits="userSpaceOnUse" x="0" y="0" width="24" height="24">
<path d="M0 0H24V24H0V0Z" fill="white"/>
</mask>
<g mask="url(#mask0_3312_54144)">
<mask id="mask1_3312_54144" style="mask-type:luminance" maskUnits="userSpaceOnUse" x="0" y="0" width="24" height="24">
<path d="M0 0H24V24H0V0Z" fill="white"/>
</mask>
<g mask="url(#mask1_3312_54144)">
<path d="M21.8566 3.21763H17.3566V1.50335C17.3566 1.38549 17.2602 1.28906 17.1423 1.28906H15.6423C15.5245 1.28906 15.428 1.38549 15.428 1.50335V3.21763H8.57086V1.50335C8.57086 1.38549 8.47446 1.28906 8.35661 1.28906H6.85661C6.73871 1.28906 6.64231 1.38549 6.64231 1.50335V3.21763H2.1423C1.66819 3.21763 1.28516 3.60067 1.28516 4.07478V21.8605C1.28516 22.3346 1.66819 22.7176 2.1423 22.7176H21.8566C22.3307 22.7176 22.7137 22.3346 22.7137 21.8605V4.07478C22.7137 3.60067 22.3307 3.21763 21.8566 3.21763ZM20.7852 20.7891H3.21373V10.6105H20.7852V20.7891ZM3.21373 8.78906V5.14621H6.64231V6.43191C6.64231 6.54976 6.73871 6.64621 6.85661 6.64621H8.35661C8.47446 6.64621 8.57086 6.54976 8.57086 6.43191V5.14621H15.428V6.43191C15.428 6.54976 15.5245 6.64621 15.6423 6.64621H17.1423C17.2602 6.64621 17.3566 6.54976 17.3566 6.43191V5.14621H20.7852V8.78906H3.21373Z" fill="#52C41A"/>
</g>
</g>
</svg>
