<svg width="20" height="24" viewBox="0 0 20 24" fill="none" xmlns="http://www.w3.org/2000/svg">
<path d="M19.1776 6.01605L13.4133 0.251786C13.2526 0.0910715 13.0357 0 12.808 0H1.42941C0.955302 0 0.572266 0.383036 0.572266 0.857145V23.1429C0.572266 23.617 0.955302 24 1.42941 24H18.5723C19.0464 24 19.4294 23.617 19.4294 23.1429V6.6241C19.4294 6.39645 19.3383 6.1768 19.1776 6.01605ZM17.4526 7.01785H12.4116V1.97678L17.4526 7.01785ZM17.5008 22.0714H2.50084V1.92857H10.5901V7.7143C10.5901 8.02495 10.7 8.2901 10.9196 8.5098C11.1393 8.72945 11.4045 8.8393 11.7151 8.8393H17.5008V22.0714ZM9.78657 14.8393H4.85798C4.74012 14.8393 4.6437 14.9357 4.6437 15.0535V16.3393C4.6437 16.4571 4.74012 16.5536 4.85798 16.5536H9.78657C9.90442 16.5536 10.0008 16.4571 10.0008 16.3393V15.0535C10.0008 14.9357 9.90442 14.8393 9.78657 14.8393ZM4.6437 11.4107V12.6965C4.6437 12.8143 4.74012 12.9107 4.85798 12.9107H15.1437C15.2616 12.9107 15.358 12.8143 15.358 12.6965V11.4107C15.358 11.2928 15.2616 11.1965 15.1437 11.1965H4.85798C4.74012 11.1965 4.6437 11.2928 4.6437 11.4107Z" fill="#5856D6"/>
</svg>
